<mxfile host="app.diagrams.net" modified="2023-11-05T04:05:00.230Z" agent="Mozilla/5.0 (Macintosh; Intel Mac OS X 10_15_7) AppleWebKit/537.36 (KHTML, like Gecko) Chrome/116.0.0.0 Safari/537.36" version="22.0.8" etag="EaThRO9eRQrH8l0l_Zhh" type="github">
  <diagram name="第 1 页" id="goTAFVhIa3UnCu6AKEep">
    <mxGraphModel>
      <root>
        <mxCell id="0" />
        <mxCell id="1" parent="0" />
      </root>
    </mxGraphModel>
  </diagram>
</mxfile>
